<?xml version="1.0" encoding="utf-8"?>
<!-- Generator: Adobe Illustrator 24.2.0, SVG Export Plug-In . SVG Version: 6.00 Build 0)  -->
<svg version="1.1" id="Layer_1" xmlns="http://www.w3.org/2000/svg" xmlns:xlink="http://www.w3.org/1999/xlink" x="0px" y="0px"
	 viewBox="0 0 130.18 51.25" style="enable-background:new 0 0 130.18 51.25;" xml:space="preserve">
<g id="Ford_Logo" transform="translate(-145.605 -188.87)">
	<path id="Path_2" class="st0" d="M275.73,204.34c0.14-0.25,0-0.43-0.32-0.43h-5.59c-0.43,0-0.64,0.04-0.82,0.43
		c-0.64,1.25-8.48,13-9.94,15.28c-0.25,0.36-0.53,0.29-0.57-0.11c-0.34-1.7-1.54-3.09-3.17-3.67c-1.33-0.53-2.78-0.71-4.2-0.5
		c-2.54,0.48-4.92,1.59-6.91,3.24c-3.06,2.32-5.66,5.31-9.08,7.55c-1.85,1.21-4.38,2.24-6.09,0.68c-1.53-1.43-1.35-4.6,1-7.05
		c0.08-0.13,0.25-0.16,0.38-0.07c0.08,0.06,0.13,0.15,0.12,0.25c-0.25,1.07,0.09,2.2,0.89,2.96c1.04,0.9,2.52,1.07,3.74,0.43
		c1.44-0.75,2.42-2.16,2.6-3.78c0.33-2.35-1.3-4.52-3.64-4.85c-0.09-0.01-0.18-0.02-0.28-0.03c-2.09-0.1-4.13,0.65-5.66,2.07
		c-0.87,0.7-1.63,1.53-2.25,2.46c-0.18,0.29-0.5,0.32-0.46-0.11c0.11-3.21-1.25-4.99-3.88-5.06c-2.19,0.13-4.29,0.98-5.95,2.42
		c-1.88,1.67-3.64,3.47-5.27,5.38c-0.21,0.21-0.39,0.21-0.46-0.21c0-1.98-0.54-3.93-1.57-5.63c-0.38-0.54-1.09-0.72-1.67-0.43
		c-0.7,0.32-1.37,0.72-1.99,1.18c-0.37,0.3-0.51,0.8-0.36,1.25c0.95,3.23,0.76,6.69-0.53,9.8c-1.17,2.78-3.45,5.31-6.16,6.13
		c-1.7,0.7-3.65,0.17-4.77-1.28c-1.57-2.17-0.93-5.95,1.39-9.08c2.09-2.6,4.86-4.55,8.02-5.63c0.36-0.14,0.43-0.36,0.32-0.64
		c-0.14-0.5-0.43-1.14-0.53-1.46c-0.29-0.71-1.03-0.85-1.96-0.75c-2.12,0.28-4.16,0.97-6.02,2.03c-5.02,2.71-7.55,7.91-8.69,10.72
		c-0.38,1.04-0.91,2.03-1.57,2.92c-1.09,1.28-2.31,2.45-3.63,3.49c-0.21,0.19-0.27,0.5-0.14,0.75c0.38,0.68,0.85,1.3,1.39,1.85
		c0.29,0.14,0.64-0.07,0.78-0.14c1.32-0.9,2.52-1.96,3.56-3.17c0.25-0.32,0.53-0.18,0.68,0.29c0.69,2.52,2.59,4.53,5.06,5.38
		c4.63,1.57,9.44-0.71,13.04-4.63c1.46-1.64,2.8-3.38,4.02-5.2c1.5-1.85,4.45-5.99,7.94-8.66c1.28-1,2.81-1.74,3.56-1.25
		c0.61,0.39,0.82,1.32-0.18,3.13c-3.56,6.52-8.83,14.21-9.8,16.07c-0.18,0.32-0.04,0.57,0.32,0.57h5.42c0.24,0,0.46-0.14,0.57-0.36
		c2.74-4.31,5.34-8.41,8.09-12.61c0.14-0.25,0.29-0.07,0.29,0.04c0.03,1.13,0.34,2.23,0.89,3.21c0.87,1.47,2.46,2.36,4.17,2.35
		c1.17,0.01,2.32-0.23,3.38-0.71c0.99-0.38,1.92-0.88,2.78-1.5c0.43-0.29,0.5,0.18,0.46,0.25c-0.64,3.42,0.14,7.45,3.53,9.15
		c4.06,1.99,8.51-0.82,11.08-3.35c0.25-0.25,0.53-0.21,0.53,0.32c0.08,1.09,0.54,2.12,1.28,2.92c2.14,2.17,6.48,1.32,10.83-2.07
		c3.09-2.51,5.89-5.34,8.37-8.44c0.15-0.15,0.15-0.39,0-0.53c-0.39-0.43-1-0.89-1.39-1.28c-0.18-0.12-0.42-0.12-0.61,0
		c-2.71,2.56-5.17,5.52-8.66,7.94c-1.18,0.82-3.1,1.5-3.92,0.36c-0.31-0.59-0.3-1.31,0.04-1.89
		C258.6,230.56,274.88,205.8,275.73,204.34 M254.22,225.11c0.04,0.18,0.29,0.36,0.53,0.46c0.07,0.04,0.14,0.11,0.04,0.29
		c-0.61,1.28-1.35,2.5-2.21,3.63c-0.78,1.13-1.72,2.15-2.78,3.03c-1.64,1.35-3.92,2.81-5.81,1.85c-0.82-0.59-1.27-1.56-1.18-2.57
		c0.18-3.01,1.39-5.86,3.42-8.09c2.67-3.28,5.63-4.99,7.55-4.06c1.99,0.96,1.35,3.28,0.46,5.09
		C254.19,224.86,254.17,224.99,254.22,225.11"/>
	<path id="Path_3" class="st0" d="M157.71,239.21c-6.06,0.04-11.4-3.7-12.04-10.19c-0.36-3.38,0.61-6.77,2.71-9.44
		c1.87-2.39,4.49-4.08,7.45-4.77c0.84-0.22,1.74-0.04,2.42,0.5c0.56,0.46,0.64,1.29,0.17,1.85c-0.11,0.13-0.24,0.24-0.39,0.32
		c-2.32,1.1-4.24,2.87-5.52,5.09c-1.11,2.04-0.98,4.53,0.32,6.45c2.42,3.67,9.23,3.78,15.53-2.1c1.55-1.39,3.01-2.88,4.38-4.45
		c2.66-3.01,5.13-6.17,7.41-9.48c0.04-0.07,0.07-0.14,0.04-0.18c-0.04-0.07-0.07-0.07-0.18-0.07c-2.43,0.03-4.78,0.86-6.7,2.35
		c-0.56,0.45-1.38,0.37-1.83-0.19c-0.01-0.01-0.02-0.02-0.02-0.03c-0.37-0.71-0.12-1.59,0.57-1.99c3.35-2.35,7.05-2.78,10.79-3.38
		c0.19-0.02,0.36-0.13,0.46-0.29c1.53-1.96,2.71-3.78,4.35-5.77c1.65-1.92,3.46-3.7,5.41-5.31c1.58-1.37,3.34-2.52,5.24-3.42
		c0.39-0.21-0.04-0.46-0.18-0.46c-8.3-1.57-16.92-3.56-25.15-0.53c-5.7,2.14-8.19,6.66-7.02,9.69c0.85,2.14,3.67,2.49,6.3,1.21
		c2.3-1.15,4.25-2.88,5.66-5.02c0.82-1.25,2.49-0.36,1.6,1.82c-2.42,5.66-7.02,10.15-12.61,10.33c-4.06,0.26-7.57-2.81-7.83-6.88
		c-0.02-0.27-0.02-0.55-0.01-0.82c0.04-8.55,9.55-14.18,19.52-15c12.04-1,23.44,2.21,35.41,3.67c9.15,1.1,17.95,1.14,27.14-1
		c0.73-0.23,1.51,0.17,1.74,0.9c0.07,0.22,0.08,0.45,0.04,0.67c-0.11,1.6-1.32,3.13-4.35,4.77c-3.34,1.73-7.07,2.59-10.83,2.49
		c-9.12,0.07-17.6-3.49-26.4-5.38c0,0.39,0.11,0.85-0.21,1.07c-4.85,3.6-9.26,7.23-12.22,12.36c-0.11,0.11-0.04,0.21,0.14,0.21
		c2.57-0.14,4.85-0.21,7.23-0.39c0.43-0.04,0.43-0.14,0.39-0.43c-0.27-1.92,0.43-3.85,1.85-5.16c1.6-1.43,3.56-1.6,4.88-0.57
		c1.5,1.18,1.35,3.28,0.53,4.85c-0.73,1.4-2.01,2.43-3.53,2.85c0,0-0.29,0.07-0.25,0.32c0.07,0.39,1.85,1.39,1.99,1.67
		c0.14,0.32,0.05,0.7-0.21,0.93c-0.21,0.26-0.52,0.41-0.85,0.43c-0.32-0.02-0.63-0.13-0.89-0.32c-0.94-0.51-1.79-1.18-2.48-1.99
		c-0.25-0.29-0.36-0.29-0.93-0.25c-2.6,0.14-6.63,0.53-9.33,0.89c-0.68,0.07-0.75,0.21-0.89,0.43c-4.35,7.16-9.01,14.93-14.11,20.09
		C167.08,237.72,162.56,239.18,157.71,239.21 M199.18,207.33c0.07,0.36,0.21,0.43,0.39,0.39c0.93-0.26,1.74-0.84,2.28-1.64
		c0.5-0.71,0.71-1.75,0.25-2.17c-0.53-0.35-1.23-0.28-1.67,0.18C199.5,204.9,199.03,206.11,199.18,207.33"/>
</g>
</svg>
