<?xml version="1.0" encoding="utf-8"?>
<!-- Generator: Adobe Illustrator 24.2.0, SVG Export Plug-In . SVG Version: 6.00 Build 0)  -->
<svg version="1.1" id="Layer_1" xmlns="http://www.w3.org/2000/svg" xmlns:xlink="http://www.w3.org/1999/xlink" x="0px" y="0px"
	 viewBox="0 0 72 36.98" style="enable-background:new 0 0 72 36.98;" xml:space="preserve">

<path id="Mustang_Off" class="st0" d="M26.34,23.5c0.39,0.59,1.25,1.88,1.4,2.17s0.46,0.76-0.4,0.85c-0.82,0.13-1.65,0.19-2.48,0.16
	c-0.52-0.1-0.9-0.32-0.54-0.97c0.26-0.48,1.24-1.98,1.39-2.17S26.07,23.09,26.34,23.5 M33.08,24.15c-0.1,0.58-0.69,0.64-1.27,0.65
	c-0.58-0.75-1.04-1.59-1.35-2.48c0.11-0.25,0.32-0.91,0.45-1.26s0.51-0.19,0.89-0.13c2.69,0.47,5.51-1.46,7.82-1.84
	c0.84-0.14,0.66,0.35,0.55,0.9c-0.36,1.54-0.82,3.06-1.39,4.55c-0.46,0.97-1.42,1.61-2.5,1.66c-1.36,0.24-1.69,1.11-2.39,1.46
	c-0.32-0.22-0.58-0.52-0.75-0.87c0.14-0.45,0.55-0.47,1.07-0.65c0.57-0.21,1.08-0.55,1.51-0.98c1.23-0.89,0.95-1.59,0.28-1.53
	c-0.76,0.06-1.53,0.05-2.29-0.01C33.39,23.57,33.19,23.57,33.08,24.15 M0.18,15.88C-0.07,16.24,0.03,16.31,0,16.7
	c-0.03,0.54,0.57,0.63,0.95,1.44c0.12,0.41,0.45,0.72,0.86,0.84c0.81,0.09,1.63-0.17,2.24-0.71c0.51-0.55,0.12-1.26,0.36-1.7
	c0.52-0.73,1.2-1.34,1.98-1.78c0.44-0.35,0.96-0.58,1.51-0.67c1.67-0.42,1.89-1.3,2.49-2.15s0.96-0.69,1.17-0.64
	c2.47,0.59,4.86,1.5,7.1,2.69c2.15,1.2,3.59,3.36,3.87,5.81c-0.72,0.92-0.95,2.13-0.63,3.25c0.05,1.23-0.25,2.46-0.86,3.53
	c-0.18,0.51-0.17,0.74,0.09,1.03c0.31,0.42,0.64,0.82,1,1.2c0.4,0.38,0.8,0.2,1.19,0.1c1.88-0.49,3.81-0.77,5.76-0.83
	c1.36-0.06,2.61,1.29,2.95,1.66s-0.17,0.61-0.45,0.79c-0.79,0.52-1.11,1.15-1.78,1.45s-1.28,0.5-1.62,1.2
	c-0.17,0.41-0.04,0.88,0.33,1.13c-0.5,0.33-0.97,0.69-1.41,1.09c-0.34,0.31-0.42,0.97,0.06,1.12c0.58,0.19,1.18,0.34,1.78,0.44
	c0.59,0.07,0.66-0.32,0.77-0.49c0.64-0.97,1.55-1.73,2.62-2.17c1.75-0.42,1.84-1.35,2.97-2.36c0.66-0.59,0.75-0.1,1.56,0.55
	c1.55,1.25,1.61,0.25,2.99,1.1c2.28,1.41,2.36,0.53,2.24,0.17c-0.28-0.7-0.6-1.38-0.95-2.05c-0.61-1.26-1.56-0.18-2.36-0.9
	c-0.41-0.39-0.78-0.83-1.08-1.32c1.12-1.17,1.4-0.58,3.59-0.68c2.04-0.09,2.14-0.8,2.61-2.22c1.2-3.68,3.23-4.54,6.11-6.44
	c2.41-1.59,1.37-2.39,2.83-3.8c0.55-0.51,0.87-1.21,0.91-1.96c0.15-0.78,0.28-0.78,0.97-0.88s3.38-0.38,4.76-1.58
	c1.49-1.29,1.52-0.78,3.27-0.69c5.68,0.27,9.15-3.7,9.25-5.76c0.06-1.12-0.53-1.37-1.12-0.81c-1.39,1.21-3.12,1.95-4.95,2.13
	c-3.53,0.38-4.79-0.56-5.88-0.37c-2.14,0.38-2.04,1.33-3.24,3.16c-0.69,1.06-4.91-0.76-5.5-1.06c-2.67-1.37-5.67-3.16-10.67-2.39
	c-4.12,0.72-8.35,0.4-12.31-0.92c-1.7-0.61-0.85-0.74-0.46-1.03s1.61-1.17,1.36-1.7c-0.38-0.79-4.72,1.57-5.4,0.73
	c-0.32-0.4,2.98-2.03,2.2-2.98s-1.83,1-4.51,1.74c-1.53,0.42-2.06,0.61-2.26,0.37c-0.4-0.5,0.39-0.86-0.01-1.22
	C18.74,0.68,17.28,1.76,16,2.33c-1.35,0.6,0.09-1.61-2.27,0.01c-1.21,0.92-2.7,1.4-4.22,1.37C8.66,3.71,8.97,3.43,8.86,2.82
	s-0.47-2.38-0.9-2.67C7.08-0.42,6.94,1.53,6.67,2.96C6.36,4.5,5.49,5.86,4.23,6.8C3.01,7.87,3.17,8.61,2.85,9.68
	C2.33,11.88,1.43,13.98,0.18,15.88"/>
</svg>
