<?xml version="1.0" encoding="utf-8"?>
<!-- Generator: Adobe Illustrator 24.2.0, SVG Export Plug-In . SVG Version: 6.00 Build 0)  -->
<svg version="1.1" id="Layer_1" xmlns="http://www.w3.org/2000/svg" xmlns:xlink="http://www.w3.org/1999/xlink" x="0px" y="0px"
	 viewBox="0 0 36 36" style="enable-background:new 0 0 36 36;" xml:space="preserve">
<g transform="matrix(1, 0, 0, 1, 0, 0)">
	<path id="Engine-2" class="st0" d="M35.61,17.45l-4-3.1c-0.5-0.4-1.3-0.3-1.7,0.2c-0.2,0.2-0.2,0.5-0.2,0.7v1.9h-1.2v-1.9
		c0-0.7-0.5-1.2-1.2-1.2l0,0h-2.4v-4.5c0-0.7-0.5-1.2-1.2-1.2l0,0h-3.8v-1.3h1c0.7,0,1.2-0.5,1.2-1.2c0-0.7-0.5-1.2-1.2-1.2l0,0
		h-7.8c-0.7,0-1.2,0.5-1.2,1.2c0,0.7,0.5,1.2,1.2,1.2l0,0h1v1.3h-4.7c-0.7,0-1.2,0.5-1.2,1.2l0,0v2.4h-2.4c-0.7,0-1.2,0.5-1.2,1.2
		l0,0v2.8h-2.2v-3.4c0-0.7-0.5-1.2-1.2-1.2c-0.7,0-1.2,0.5-1.2,1.2v12.6c0,0.7,0.5,1.2,1.2,1.2c0.7,0,1.2-0.5,1.2-1.2v-3.4h2.2v2.8
		c0,0.7,0.5,1.2,1.2,1.2l0,0h3l4.3,5.2c0.2,0.3,0.6,0.4,0.9,0.4h13.1c0.7,0,1.2-0.5,1.2-1.2l0,0v-1.6h1.2v1.6c0,0.7,0.5,1.2,1.2,1.2
		c0.3,0,0.6-0.1,0.8-0.3l4-3.5c0.3-0.2,0.4-0.6,0.4-0.9v-8.4C36.11,18.05,35.91,17.65,35.61,17.45z"/>
</g>
</svg>
