<?xml version="1.0" encoding="utf-8"?>
<!-- Generator: Adobe Illustrator 24.2.0, SVG Export Plug-In . SVG Version: 6.00 Build 0)  -->
<svg version="1.1" id="Layer_1" xmlns="http://www.w3.org/2000/svg" xmlns:xlink="http://www.w3.org/1999/xlink" x="0px" y="0px"
	 viewBox="0 0 22.6 24" style="enable-background:new 0 0 22.6 24;" xml:space="preserve">
<path id="Fuel" class="st0" d="M21.8,1.7C21.4,1.7,21,2,21,2.5v0.9c-0.1,0-0.2-0.1-0.3-0.1c-0.7,0-1.2,0.5-1.2,1.2c0,0,0,0,0,0v2.9
	c0,0.3,0.1,0.7,0.4,0.9V16c0,0.4-0.4,0.8-0.8,0.8s-0.8-0.4-0.8-0.8v-3c0-1.2-1-2.3-2.2-2.4V2.4C16.1,1.1,15,0,13.7,0H2.4
	C1.1,0,0,1.1,0,2.4v19.2C0,22.9,1.1,24,2.4,24h11.3c1.3,0,2.4-1.1,2.4-2.4v-9.4c0.3,0.1,0.6,0.4,0.6,0.8v3c0,1.3,1.1,2.4,2.4,2.4
	s2.4-1.1,2.4-2.4l0,0V8.3c0.3-0.2,0.4-0.5,0.4-0.9V6.2c0.4,0,0.7-0.4,0.7-0.8V2.5C22.6,2,22.2,1.7,21.8,1.7z M13.6,9.3H2.5V2.6h11.1
	L13.6,9.3z"/>
</svg>
