<?xml version="1.0" encoding="utf-8"?>
<!-- Generator: Adobe Illustrator 24.2.0, SVG Export Plug-In . SVG Version: 6.00 Build 0)  -->
<svg version="1.1" id="Layer_1" xmlns="http://www.w3.org/2000/svg" xmlns:xlink="http://www.w3.org/1999/xlink" x="0px" y="0px"
	 viewBox="0 0 36 36" style="enable-background:new 0 0 36 36;" xml:space="preserve">
<g id="Oil" transform="translate(-1247.891 -260.971)">
	<g transform="matrix(1, 0, 0, 1, 1247.89, 260.97)">
		<path id="Path_27-2_9_" class="st0" d="M34.24,17.58c-0.17-0.46-0.6-0.78-1.09-0.79l-8.31-0.2l-5.49-2.05l0.76-2.05l0.05,0.02
			c0.61,0.25,1.31-0.05,1.55-0.66c0.25-0.61-0.05-1.31-0.66-1.55c-0.01,0-0.02-0.01-0.02-0.01l-0.03-0.01l-4.61-1.72
			c-0.61-0.24-1.3,0.06-1.54,0.68s0.06,1.3,0.68,1.54l0.03,0.01l0.09,0.04l-0.76,2.05l-5.5-2.05L6.7,5.85
			C6.41,5.3,5.73,5.07,5.16,5.34L0.91,7.27c-0.6,0.27-0.86,0.98-0.59,1.58c0.03,0.07,0.07,0.14,0.12,0.2l5.35,7.46l-2.24,6.02
			c-0.23,0.62,0.08,1.3,0.7,1.53l15.82,5.9c0.41,0.15,0.86,0.07,1.19-0.21L33.9,18.88C34.27,18.56,34.41,18.04,34.24,17.58z
			 M3.22,8.84l1.91-0.87l2.27,4.21l-0.61,1.64L3.22,8.84z"/>
	</g>
	<g transform="matrix(1, 0, 0, 1, 1247.89, 260.97)">
		<path id="Path_28-2_9_" class="st0" d="M34,23.66c-0.1-0.21-0.35-0.31-0.57-0.21c-0.09,0.04-0.17,0.12-0.21,0.21
			c-0.63,1.37-1.8,4.05-1.8,4.93c0,1.21,0.97,2.19,2.17,2.19c1.21,0,2.19-0.97,2.19-2.17c0-0.01,0-0.01,0-0.02
			C35.8,27.7,34.62,25.03,34,23.66z"/>
	</g>
</g>
</svg>
