<?xml version="1.0" encoding="utf-8"?>
<!-- Generator: Adobe Illustrator 24.2.0, SVG Export Plug-In . SVG Version: 6.00 Build 0)  -->
<svg version="1.1" id="Layer_1" xmlns="http://www.w3.org/2000/svg" xmlns:xlink="http://www.w3.org/1999/xlink" x="0px" y="0px"
	 viewBox="0 0 36 36" style="enable-background:new 0 0 36 36;" xml:space="preserve">
<g id="Temp" transform="translate(-1167.53 -306.787)">
	<g transform="matrix(1, 0, 0, 1, 1167.53, 306.79)">
		<path id="Path_29-2_9_" class="st0" d="M20.98,28.48c1.73,0.74,3.74,0.35,5.07-0.98c0.85-0.84,2.22-0.84,3.06,0
			c1.8,1.8,4.72,1.8,6.53,0c0.49-0.47,0.5-1.24,0.04-1.73c-0.47-0.49-1.24-0.5-1.73-0.04c-0.01,0.01-0.02,0.02-0.04,0.04
			c-0.85,0.84-2.22,0.84-3.06,0c-1.83-1.74-4.7-1.74-6.53,0c-0.41,0.41-0.97,0.64-1.56,0.63C22.36,27.23,21.75,27.95,20.98,28.48z"
			/>
	</g>
	<g transform="matrix(1, 0, 0, 1, 1167.53, 306.79)">
		<path id="Path_30-2_9_" class="st0" d="M6.87,27.5c0.86-0.82,2.2-0.82,3.06,0c1.33,1.33,3.34,1.71,5.07,0.98
			c-0.76-0.53-1.38-1.24-1.79-2.08c-0.58,0.01-1.14-0.22-1.55-0.63c-1.83-1.74-4.7-1.74-6.53,0c-0.85,0.84-2.22,0.84-3.06,0
			c-0.48-0.48-1.25-0.48-1.73,0c-0.48,0.48-0.48,1.25,0,1.73l0,0C2.15,29.3,5.07,29.3,6.87,27.5z"/>
	</g>
	<g transform="matrix(1, 0, 0, 1, 1167.53, 306.79)">
		<path id="Path_31-2_9_" class="st0" d="M17.99,26.94c1.59,0.01,2.89-1.28,2.89-2.87c0-0.81-0.34-1.59-0.94-2.14l-0.11-2.87
			l-0.19-4.73h1.81c0.68-0.02,1.21-0.58,1.19-1.26c-0.02-0.65-0.54-1.17-1.19-1.19h-1.9l-0.05-1.23h1.95c0.68,0,1.22-0.55,1.22-1.23
			S22.13,8.2,21.45,8.2H19.4l-0.05-1.22h2.1c0.68-0.02,1.21-0.58,1.19-1.26c-0.02-0.65-0.54-1.17-1.19-1.19h-2.19L19.22,3.4
			c-0.03-0.68-0.61-1.2-1.29-1.16c-0.63,0.03-1.13,0.53-1.16,1.16l-0.61,15.65l-0.11,2.87c-1.18,1.07-1.26,2.9-0.19,4.07
			C16.41,26.6,17.18,26.94,17.99,26.94L17.99,26.94z"/>
	</g>
	<g transform="matrix(1, 0, 0, 1, 1167.53, 306.79)">
		<path id="Path_32-2_9_" class="st0" d="M33.91,30.67c-0.85,0.84-2.22,0.84-3.06,0c-1.83-1.74-4.7-1.74-6.53,0
			c-0.85,0.84-2.22,0.84-3.06,0c-0.78-0.77-1.81-1.24-2.9-1.32c-0.24-0.02-0.49-0.02-0.73,0c-1.09,0.08-2.12,0.54-2.9,1.32
			c-0.85,0.84-2.22,0.84-3.06,0c-1.83-1.74-4.7-1.74-6.53,0c-0.85,0.84-2.22,0.84-3.06,0c-0.48-0.48-1.25-0.48-1.73,0
			c-0.48,0.48-0.48,1.25,0,1.73c1.8,1.8,4.72,1.8,6.53,0c0.86-0.82,2.2-0.82,3.06,0c1.8,1.8,4.72,1.8,6.53,0
			c0.85-0.84,2.21-0.84,3.06,0c1.8,1.8,4.72,1.8,6.53,0c0.85-0.85,2.22-0.85,3.06,0c1.8,1.8,4.72,1.8,6.53,0
			c0.48-0.48,0.48-1.25,0-1.73C35.15,30.2,34.38,30.2,33.91,30.67L33.91,30.67L33.91,30.67z"/>
	</g>
</g>
</svg>
